<svg id="Back" xmlns="http://www.w3.org/2000/svg" width="49.631" height="49.631" viewBox="0 0 49.631 49.631">
  <rect id="Frame" width="49.631" height="49.631" rx="17" fill="#56c596"/>
  <g id="Grupo_90" data-name="Grupo 90" transform="translate(-252.25 -124.155)">
    <path id="Trazado_1" data-name="Trazado 1" d="M263.25,156.3c.043-.11.082-.223.131-.33a1.79,1.79,0,0,1,1.638-1.111c.325-.017.652,0,.978,0q8.44,0,16.879,0a5.353,5.353,0,0,0,.941-10.631,6.826,6.826,0,0,0-1-.08q-4.3-.009-8.607,0c-.072,0-.144.006-.26.012.08.09.129.151.183.207.387.39.787.768,1.16,1.171a1.788,1.788,0,0,1-2.549,2.5q-2.239-2.207-4.447-4.446a1.739,1.739,0,0,1,.006-2.49q2.2-2.227,4.427-4.426a1.787,1.787,0,0,1,2.555,2.5c-.359.39-.746.755-1.12,1.132-.062.063-.119.131-.22.243h.379c2.841,0,5.683-.045,8.523.011a8.791,8.791,0,0,1,8.268,5.358,7.781,7.781,0,0,1,.7,2.6,1.989,1.989,0,0,0,.054.24v1.509a1.168,1.168,0,0,0-.051.187,8.93,8.93,0,0,1-8.457,7.964c-2.465.078-4.935.03-7.4.032q-5.378,0-10.756,0a1.792,1.792,0,0,1-1.9-1.36c-.008-.023-.033-.04-.051-.06Z" fill="#fff"/>
  </g>
</svg>
