<svg xmlns="http://www.w3.org/2000/svg" width="21.666" height="26.19" viewBox="0 0 21.666 26.19">
  <g id="Icon_person" transform="translate(1.013 1)">
    <g id="Icons_injury" data-name="Icons/ injury" transform="translate(0)">
      <path id="Path" d="M0,0H0A5.2,5.2,0,0,0,6.993,0h0l3.234,2.1a4,4,0,0,1,1.486,2.5l1.4,6.4" transform="translate(6.35 13)" fill="none" stroke="#56c596" stroke-linecap="round" stroke-linejoin="round" stroke-miterlimit="10" stroke-width="2"/>
      <path id="Path-2" data-name="Path" d="M6.084,0h0c-2.5,1.6-5.4,3.6-6,6.5h0a3.735,3.735,0,0,0,3.6,4.5h6.9a2.476,2.476,0,0,0,2.5-2.5h0a2.476,2.476,0,0,0-2.5-2.5h-4.5V0Z" transform="translate(0 13)" fill="none" stroke="#56c596" stroke-linecap="round" stroke-linejoin="round" stroke-miterlimit="10" stroke-width="2"/>
      <path id="Path-3" data-name="Path" d="M0,.5H2" transform="translate(3.737 18.5)" fill="none" stroke="#56c596" stroke-linecap="round" stroke-linejoin="round" stroke-miterlimit="10" stroke-width="2"/>
      <path id="Path-4" data-name="Path" d="M10,3.5A3.543,3.543,0,0,0,6.5,0,3.543,3.543,0,0,0,3,3.5,1.538,1.538,0,0,0,1.5,2,1.538,1.538,0,0,0,0,3.5V9A4,4,0,0,0,8,9V6h2Z" transform="translate(5.194)" fill="none" stroke="#56c596" stroke-linecap="round" stroke-linejoin="round" stroke-miterlimit="10" stroke-width="2"/>
    </g>
  </g>
</svg>
