<svg xmlns="http://www.w3.org/2000/svg" xmlns:xlink="http://www.w3.org/1999/xlink" width="333.678" height="203.493" viewBox="0 0 333.678 203.493">
  <defs>
    <radialGradient id="radial-gradient" cx="0.5" cy="0.5" r="0.5" gradientUnits="objectBoundingBox">
      <stop offset="0" stop-color="#7be495"/>
      <stop offset="1" stop-color="#329d9c"/>
    </radialGradient>
    <filter id="Rectangle" x="65.5" y="0" width="202.678" height="107.493" filterUnits="userSpaceOnUse">
      <feOffset dx="7" dy="7" input="SourceAlpha"/>
      <feGaussianBlur stdDeviation="14" result="blur"/>
      <feFlood flood-color="#dbdbdb" flood-opacity="0.549"/>
      <feComposite operator="in" in2="blur"/>
      <feComposite in="SourceGraphic"/>
    </filter>
    <filter id="Rectangle-2" x="0" y="15" width="333.678" height="188.493" filterUnits="userSpaceOnUse">
      <feOffset dx="7" dy="7" input="SourceAlpha"/>
      <feGaussianBlur stdDeviation="14" result="blur-2"/>
      <feFlood flood-color="#dbdbdb" flood-opacity="0.549"/>
      <feComposite operator="in" in2="blur-2"/>
      <feComposite in="SourceGraphic"/>
    </filter>
    <filter id="Rectangle-3" x="22" y="30" width="173.678" height="157.493" filterUnits="userSpaceOnUse">
      <feOffset dx="7" dy="7" input="SourceAlpha"/>
      <feGaussianBlur stdDeviation="14" result="blur-3"/>
      <feFlood flood-color="#dbdbdb" flood-opacity="0.549"/>
      <feComposite operator="in" in2="blur-3"/>
      <feComposite in="SourceGraphic"/>
    </filter>
    <filter id="Rectangle-4" x="138" y="30" width="173.678" height="157.493" filterUnits="userSpaceOnUse">
      <feOffset dx="7" dy="7" input="SourceAlpha"/>
      <feGaussianBlur stdDeviation="14" result="blur-4"/>
      <feFlood flood-color="#dbdbdb" flood-opacity="0.549"/>
      <feComposite operator="in" in2="blur-4"/>
      <feComposite in="SourceGraphic"/>
    </filter>
  </defs>
  <g id="Grupo_93" data-name="Grupo 93" transform="translate(-1272 -3100)">
    <g transform="matrix(1, 0, 0, 1, 1272, 3100)" filter="url(#Rectangle)">
      <rect id="Rectangle-5" data-name="Rectangle" width="115.678" height="20.493" rx="10.247" transform="translate(102 36.5)" stroke="#7be495" stroke-width="3" fill="url(#radial-gradient)"/>
    </g>
    <g transform="matrix(1, 0, 0, 1, 1272, 3100)" filter="url(#Rectangle-2)">
      <rect id="Rectangle-6" data-name="Rectangle" width="246.678" height="101.493" rx="10.857" transform="translate(36.5 51.5)" fill="#fff" stroke="#f0f4ef" stroke-width="3"/>
    </g>
    <rect id="Rectangle-7" data-name="Rectangle" width="58.392" height="12" rx="6" transform="translate(1438 3173) rotate(90)" fill="rgba(224,236,222,0.34)"/>
    <circle id="Oval" cx="4" cy="4" r="4" transform="translate(1436 3188) rotate(90)" fill="#205072"/>
    <circle id="Oval-2" data-name="Oval" cx="4" cy="4" r="4" transform="translate(1436 3207) rotate(90)" fill="#205072"/>
    <g transform="matrix(1, 0, 0, 1, 1272, 3100)" filter="url(#Rectangle-3)">
      <rect id="Rectangle-8" data-name="Rectangle" width="89.678" height="73.493" rx="10.857" transform="translate(57 65)" fill="#fff"/>
    </g>
    <text id="Heading_1" data-name="Heading 1" transform="translate(1331 3216)" fill="#7be495" font-size="38" font-family="Montserrat-Bold, Montserrat" font-weight="700"><tspan x="0" y="0">PILL</tspan></text>
    <g transform="matrix(1, 0, 0, 1, 1272, 3100)" filter="url(#Rectangle-4)">
      <rect id="Rectangle-9" data-name="Rectangle" width="89.678" height="73.493" rx="10.857" transform="translate(173 65)" fill="#fff"/>
    </g>
    <text id="Heading_1-2" data-name="Heading 1" transform="translate(1448 3216)" fill="#7be495" font-size="38" font-family="Montserrat-Bold, Montserrat" font-weight="700"><tspan x="0" y="0">APP</tspan></text>
    <path id="Trazado_2" data-name="Trazado 2" d="M-.581-.04l89.768.012" transform="translate(1329.5 3202.247)" fill="none" stroke="#f0f4ef" stroke-width="2"/>
    <line id="Línea_4" data-name="Línea 4" x2="90.5" transform="translate(1445 3202.247)" fill="none" stroke="#f0f4ef" stroke-width="2"/>
  </g>
</svg>
