<svg xmlns="http://www.w3.org/2000/svg" width="43" height="43" viewBox="0 0 43 43">
  <g id="Icon_candado" transform="translate(1.5 1.5)">
    <path id="Path" d="M0,0H11.667" transform="translate(20 30.833) rotate(-90)" fill="none" stroke="#47cacc" stroke-linecap="round" stroke-linejoin="round" stroke-miterlimit="10" stroke-width="3"/>
    <path id="Path-2" data-name="Path" d="M33.846,30H6.154A6.1,6.1,0,0,1,0,24V6A6.1,6.1,0,0,1,6.154,0H33.846A6.1,6.1,0,0,1,40,6V24A6.1,6.1,0,0,1,33.846,30Z" transform="translate(0 10)" fill="none" stroke="#47cacc" stroke-linecap="round" stroke-linejoin="round" stroke-miterlimit="10" stroke-width="3"/>
    <path id="Path-3" data-name="Path" d="M16.667,10H0V6.667A6.686,6.686,0,0,1,6.667,0H10a6.686,6.686,0,0,1,6.667,6.667Z" transform="translate(11.667 0)" fill="none" stroke="#47cacc" stroke-linecap="round" stroke-linejoin="round" stroke-miterlimit="10" stroke-width="3"/>
  </g>
</svg>
