<svg xmlns="http://www.w3.org/2000/svg" width="43.311" height="52.612" viewBox="0 0 43.311 52.612">
  <g id="Icon_person" transform="translate(1.525 1.5)">
    <g id="Icons_injury" data-name="Icons/ injury">
      <path id="Path" d="M0,0H0A10.694,10.694,0,0,0,14.373,0h0L21.02,4.316a8.215,8.215,0,0,1,3.054,5.138l2.875,13.154" transform="translate(13.051 26.719)" fill="none" stroke="#47cacc" stroke-linecap="round" stroke-linejoin="round" stroke-miterlimit="10" stroke-width="3"/>
      <path id="Path-2" data-name="Path" d="M12.5,0h0C7.366,3.288,1.406,7.4.173,13.359h0a7.676,7.676,0,0,0,7.4,9.249H21.753a5.088,5.088,0,0,0,5.138-5.138h0a5.088,5.088,0,0,0-5.138-5.138H12.5V0Z" transform="translate(0 26.719)" fill="none" stroke="#47cacc" stroke-linecap="round" stroke-linejoin="round" stroke-miterlimit="10" stroke-width="3"/>
      <path id="Path-3" data-name="Path" d="M0,.5H4.111" transform="translate(7.68 38.55)" fill="none" stroke="#47cacc" stroke-linecap="round" stroke-linejoin="round" stroke-miterlimit="10" stroke-width="3"/>
      <path id="Path-4" data-name="Path" d="M20.553,7.193A7.282,7.282,0,0,0,13.359,0,7.282,7.282,0,0,0,6.166,7.193,3.161,3.161,0,0,0,3.083,4.111,3.161,3.161,0,0,0,0,7.193V18.5a8.221,8.221,0,0,0,16.442,0V12.332h4.111Z" transform="translate(10.675)" fill="none" stroke="#47cacc" stroke-linecap="round" stroke-linejoin="round" stroke-miterlimit="10" stroke-width="3"/>
    </g>
  </g>
</svg>
