<svg xmlns="http://www.w3.org/2000/svg" width="27.988" height="25" viewBox="0 0 27.988 25">
    <g data-name="Icons/ heart">
        <path d="M23.95 2.025h0a6.583 6.583 0 0 0-9.5 0l-1.3 1.4a.454.454 0 0 1-.5 0l-1.3-1.4a6.467 6.467 0 0 0-9.4 0h0a7.131 7.131 0 0 0 0 9.8l1.6 1.6 9.2 9.5a.454.454 0 0 0 .5 0l9.2-9.5 1.6-1.6a7.035 7.035 0 0 0-.1-9.8z" transform="translate(1 1)" style="fill:none;stroke:#56c596;stroke-linecap:round;stroke-linejoin:round;stroke-miterlimit:10;stroke-width:2px"/>
        <path data-name="Path" d="M0 3h3l2-2 2 4 2-5 2 3h3" transform="translate(6.95 8.025)" style="fill:none;stroke:#56c596;stroke-linecap:round;stroke-linejoin:round;stroke-miterlimit:10;stroke-width:2px"/>
    </g>
</svg>
