<svg xmlns="http://www.w3.org/2000/svg" width="21.666" height="26.19" viewBox="0 0 21.666 26.19">
    <g data-name="Icons/ injury">
        <path d="M0 0h0a5.2 5.2 0 0 0 6.993 0h0l3.234 2.1a4 4 0 0 1 1.486 2.5l1.4 6.4" transform="translate(7.363 14)" style="fill:none;stroke:#56c596;stroke-linecap:round;stroke-linejoin:round;stroke-miterlimit:10;stroke-width:2px"/>
        <path data-name="Path" d="M6.084 0h0c-2.5 1.6-5.4 3.6-6 6.5h0a3.735 3.735 0 0 0 3.6 4.5h6.9a2.476 2.476 0 0 0 2.5-2.5h0a2.476 2.476 0 0 0-2.5-2.5h-4.5V0z" transform="translate(1.013 14)" style="fill:none;stroke:#56c596;stroke-linecap:round;stroke-linejoin:round;stroke-miterlimit:10;stroke-width:2px"/>
        <path data-name="Path" d="M0 .5h2" transform="translate(4.75 19.5)" style="fill:none;stroke:#56c596;stroke-linecap:round;stroke-linejoin:round;stroke-miterlimit:10;stroke-width:2px"/>
        <path data-name="Path" d="M10 3.5A3.543 3.543 0 0 0 6.5 0 3.543 3.543 0 0 0 3 3.5 1.538 1.538 0 0 0 1.5 2 1.538 1.538 0 0 0 0 3.5V9a4 4 0 0 0 8 0V6h2z" transform="translate(6.207 1)" style="fill:none;stroke:#56c596;stroke-linecap:round;stroke-linejoin:round;stroke-miterlimit:10;stroke-width:2px"/>
    </g>
</svg>
