<svg xmlns="http://www.w3.org/2000/svg" width="21" height="28" viewBox="0 0 21 28">
    <path d="M14.3 12.3a5.506 5.506 0 0 1-2.8-.8c-2.1-1.4-2.2-3.6-.6-5.4S16 3.5 16 3.5V0l-1.2.4A29.273 29.273 0 0 0 0 10.6h0" transform="translate(4 5)" style="fill:none;stroke:#56c596;stroke-linecap:round;stroke-linejoin:round;stroke-miterlimit:10;stroke-width:2px"/>
    <path data-name="Path" d="M0 4V1.8A1.793 1.793 0 0 1 1.8 0H5v2" transform="translate(3 5)" style="fill:none;stroke:#56c596;stroke-linecap:round;stroke-linejoin:round;stroke-miterlimit:10;stroke-width:2px"/>
    <path data-name="Path" d="M0 6V1.5A1.538 1.538 0 0 1 1.5 0h0A1.538 1.538 0 0 1 3 1.5V7" transform="translate(8 1)" style="fill:none;stroke:#56c596;stroke-linecap:round;stroke-linejoin:round;stroke-miterlimit:10;stroke-width:2px"/>
    <path data-name="Path" d="M0 5V1.5A1.538 1.538 0 0 1 1.5 0h0A1.538 1.538 0 0 1 3 1.5V4" transform="translate(11 3)" style="fill:none;stroke:#56c596;stroke-linecap:round;stroke-linejoin:round;stroke-miterlimit:10;stroke-width:2px"/>
    <path data-name="Path" d="M15.1 2.8a9.368 9.368 0 0 1 2.4 5.1c.6 3.4 4.8 11.4-4.3 11.4C8.3 19.3 0 14.9 0 7.9A7.614 7.614 0 0 1 7.9 0a13.449 13.449 0 0 1 3.5.5" transform="translate(1 7.7)" style="fill:none;stroke:#56c596;stroke-linecap:round;stroke-linejoin:round;stroke-miterlimit:10;stroke-width:2px"/>
</svg>
