<svg id="Layer_1" data-name="Layer 1" xmlns="http://www.w3.org/2000/svg" xmlns:xlink="http://www.w3.org/1999/xlink" viewBox="0 0 375 243"><defs><radialGradient id="radial-gradient" cx="-1944.54" cy="43.25" r="0.5" gradientTransform="translate(225132.73 -742) scale(115.68 20.49)" gradientUnits="userSpaceOnUse"><stop offset="0" stop-color="#7be495"/><stop offset="1" stop-color="#329d9c"/></radialGradient></defs><title>pill_app_logo_clean</title><path id="Rectangle-7" d="M144.7,134h95.2a10.18,10.18,0,0,1,10.2,10.2h0a10.18,10.18,0,0,1-10.2,10.2H144.7a10.18,10.18,0,0,1-10.2-10.2h0A10.24,10.24,0,0,1,144.7,134Z" transform="translate(-12 -84.7)" stroke="#7be495" stroke-width="3" fill="url(#radial-gradient)"/><path id="Rectangle-8" d="M79.9,149h225a10.93,10.93,0,0,1,10.9,10.9v79.8a10.93,10.93,0,0,1-10.9,10.9H79.9A10.93,10.93,0,0,1,69,239.7V159.9A10.93,10.93,0,0,1,79.9,149Z" transform="translate(-12 -84.7)" fill="#fefefe" stroke="#f0f3ef" stroke-miterlimit="10" stroke-width="4"/><path id="Rectangle-9" d="M198.5,176.5v46.4a6,6,0,0,1-6,6h0a6,6,0,0,1-6-6V176.5a6,6,0,0,1,6-6h0A6,6,0,0,1,198.5,176.5Z" transform="translate(-12 -84.7)" fill="#f0f5f0"/><circle id="Oval" cx="180.5" cy="104.8" r="4" fill="#205072"/><circle id="Oval-2" cx="180.5" cy="123.8" r="4" fill="#205072"/><g id="Rectangle-10"><image width="259" height="243" opacity="0.55" xlink:href="A9AB6D98.png" style="isolation:isolate"/><path d="M100.4,162.5h68a10.93,10.93,0,0,1,10.9,10.9v51.8a10.93,10.93,0,0,1-10.9,10.9h-68a10.93,10.93,0,0,1-10.9-10.9V173.4A10.93,10.93,0,0,1,100.4,162.5Z" transform="translate(-12 -84.7)" fill="#fff"/></g><g style="isolation:isolate"><path d="M112.3,188.1a9.39,9.39,0,0,1,4,3.3,9.5,9.5,0,0,1,1.4,5.1,9.25,9.25,0,0,1-1.4,5.1,8.17,8.17,0,0,1-4,3.3,14.43,14.43,0,0,1-6.1,1.2h-5.4v7.3H94.6V186.8h11.5A16.23,16.23,0,0,1,112.3,188.1ZM110,200a4,4,0,0,0,1.4-3.4,4.29,4.29,0,0,0-1.4-3.4,6.56,6.56,0,0,0-4.2-1.2h-5v9.2h5A6.2,6.2,0,0,0,110,200Z" transform="translate(-12 -84.7)" fill="#7be495"/><path d="M122.1,186.9h6.2v26.6h-6.2Z" transform="translate(-12 -84.7)" fill="#7be495"/><path d="M134.6,186.9h6.2v21.6H154v5H134.5V186.9Z" transform="translate(-12 -84.7)" fill="#7be495"/><path d="M157.5,186.9h6.2v21.6H177v5H157.5Z" transform="translate(-12 -84.7)" fill="#7be495"/></g><g id="Rectangle-11"><image width="259" height="243" transform="translate(116)" opacity="0.55" xlink:href="A9AB6D9F.png" style="isolation:isolate"/><path d="M216.4,162.5h68a10.93,10.93,0,0,1,10.9,10.9v51.8a10.93,10.93,0,0,1-10.9,10.9h-68a10.93,10.93,0,0,1-10.9-10.9V173.4A10.93,10.93,0,0,1,216.4,162.5Z" transform="translate(-12 -84.7)" fill="#fff"/></g><g style="isolation:isolate"><path d="M229.2,207.8H216.9l-2.4,5.7h-6.3l11.9-26.6h6.1l11.9,26.6h-6.5Zm-2-4.7L223,192.9l-4.2,10.2Z" transform="translate(-12 -84.7)" fill="#7be495"/><path d="M258.4,188.1a9.39,9.39,0,0,1,4,3.3,9.5,9.5,0,0,1,1.4,5.1,9.25,9.25,0,0,1-1.4,5.1,8.17,8.17,0,0,1-4,3.3,14.43,14.43,0,0,1-6.1,1.2h-5.4v7.3h-6.2V186.8h11.5A16.23,16.23,0,0,1,258.4,188.1ZM256.2,200a4,4,0,0,0,1.4-3.4,4.29,4.29,0,0,0-1.4-3.4A6.56,6.56,0,0,0,252,192h-5v9.2h5A6.56,6.56,0,0,0,256.2,200Z" transform="translate(-12 -84.7)" fill="#7be495"/><path d="M285.8,188.1a9.39,9.39,0,0,1,4,3.3,9.5,9.5,0,0,1,1.4,5.1,9.25,9.25,0,0,1-1.4,5.1,8.74,8.74,0,0,1-4,3.3,14.43,14.43,0,0,1-6.1,1.2h-5.4v7.3h-6.2V186.8h11.5A15.82,15.82,0,0,1,285.8,188.1ZM283.6,200a4,4,0,0,0,1.4-3.4,4.29,4.29,0,0,0-1.4-3.4,6.56,6.56,0,0,0-4.2-1.2h-5v9.2h5A6.56,6.56,0,0,0,283.6,200Z" transform="translate(-12 -84.7)" fill="#7be495"/></g><path id="Trazado_2" data-name="Trazado 2" d="M89.4,199.7h89.8" transform="translate(-12 -84.7)" fill="none" stroke="#f0f4ef" stroke-width="2"/><line id="Línea_4" data-name="Línea 4" x1="193.5" y1="115" x2="284" y2="115" fill="none" stroke="#f0f4ef" stroke-width="2"/></svg>